inDegrees=yes
name=ik_S41_A06_T01
DataType=double
version=3
OpenSimVersion=4.3-2021-08-27-4bc7ad9
endheader
time	pelvis_tilt	pelvis_list	pelvis_rotation	pelvis_tx	pelvis_ty	pelvis_tz	hip_flexion_r	hip_adduction_r	hip_rotation_r	knee_angle_r	knee_angle_r_beta	ankle_angle_r	subtalar_angle_r	mtp_angle_r	hip_flexion_l	hip_adduction_l	hip_rotation_l	knee_angle_l	knee_angle_l_beta	ankle_angle_l	subtalar_angle_l	mtp_angle_l	lumbar_extension	lumbar_bending	lumbar_rotation	arm_flex_r	arm_add_r	arm_rot_r	elbow_flex_r	pro_sup_r	wrist_flex_r	wrist_dev_r	arm_flex_l	arm_add_l	arm_rot_l	elbow_flex_l	pro_sup_l	wrist_flex_l	wrist_dev_l
0	0	0	0	0	0.9399999999999999	0	0	0	0	0	0	0	0	0	0	0	0	0	0	0	0	0	0	0	0	0	0	0	0	89.99999999963507	0	0	0	0	0	0	89.99999999869995	0	0
0.02	-9.579213207558686	-5.991098893393913	25.41170446208746	0	0.9399999999999999	0	1.900704230314369	-0.902398739255981	-0.639749792663168	2.958979388392587	0.05164393282609872	0	0	0	1.900704230314369	-0.902398739255981	-0.639749792663168	2.958979388392587	0.05164393282609872	0	0	0	-10.36202747355912	-2.705412503172014	9.786712347971642	35.76545342402131	1.770705365945534	4.780004747059686	18.19975609354831	97.27729198933945	0	0	26.04769598374203	-1.346082135765552	-8.911422494795714	4.532079263403157	96.2523594930403	0	0
0.04	-9.575687457853485	-5.985340308854107	25.74584371226528	0	0.9399999999999999	0	5.009498530028217	-2.270883782155297	-1.747718157507616	5.637590124768103	0.09839450955512132	0	0	0	5.009498530028217	-2.270883782155297	-1.747718157507616	5.637590124768103	0.09839450955512132	0	0	0	-10.38449226836334	-2.654679464134864	9.461396135457274	35.76632986164616	1.757626930443755	4.778896130219239	18.21788171755285	97.28202131482142	0	0	26.03171704184644	-1.340318487335759	-9.000908604240282	4.605366376536479	96.22707834036731	0	0
0.06	-9.575891149121658	-5.977155460807425	25.9150346047023	0	0.9399999999999999	0	6.650370048741395	-2.942210623845867	-2.306978000462296	7.19498213212371	0.1255761278277204	0	0	0	6.650370048741395	-2.942210623845867	-2.306978000462296	7.19498213212371	0.1255761278277204	0	0	0	-10.39520219821662	-2.630142479045654	9.293512597072679	35.76311055166808	1.742199435201802	4.776187073901711	18.23990731612588	97.28334011707759	0	0	26.01725273431774	-1.317356662786625	-9.030777672053857	4.622889325102499	96.13170785328657	0	0
0.08	-9.554519072733068	-5.983333066670292	26.02215106441457	0	0.9399999999999999	0	7.731203915078922	-3.375101739959433	-2.666899127638584	8.302422023094287	0.144904600193084	0	0	0	7.731203915078922	-3.375101739959433	-2.666899127638584	8.302422023094287	0.144904600193084	0	0	0	-10.3936288250959	-2.622503680773864	9.185775988723298	35.74846807784954	1.775813196680841	4.764814553156392	18.22091708664509	97.29427557331859	0	0	25.99357565685705	-1.345780858454419	-9.023717771500277	4.637243339594495	96.12899876185045	0	0
0.1	-9.559563357143404	-5.983508429660771	26.0512701571921	0	0.9399999999999999	0	8.036014125972658	-3.488676457857972	-2.767576185822503	8.57476505503301	0.1496578827952788	0	0	0	8.036014125972658	-3.488676457857972	-2.767576185822503	8.57476505503301	0.1496578827952788	0	0	0	-10.40144193855547	-2.614123872601349	9.143302080469224	35.7468190923795	1.754145393432448	4.759189227081654	18.19747578062124	97.3329285570572	0	0	25.98407118762189	-1.330022287835422	-9.083204441171521	4.667944048018859	95.99202259740009	0	0
0.12	-9.556415991084831	-5.992352493238508	26.06912089471053	0	0.9399999999999999	0	8.04366273588338	-3.492331963993637	-2.770171944126997	8.584670606221737	0.1498307672777469	0	0	0	8.04366273588338	-3.492331963993637	-2.770171944126997	8.584670606221737	0.1498307672777469	0	0	0	-10.40361276792687	-2.620589598504155	9.129523327644412	35.75512742841955	1.749505743584857	4.768432966859298	18.19238873522265	97.31567013201656	0	0	25.90681342443803	-1.320250890336356	-9.170654621981106	4.733658461276257	95.88698464990414	0	0
0.14	-9.553099552485676	-5.989104742783674	26.0875954772291	0	0.9399999999999999	0	8.05227839604801	-3.496450700987425	-2.773096413911377	8.595822913458548	0.1500254117582233	0	0	0	8.05227839604801	-3.496450700987425	-2.773096413911377	8.595822913458548	0.1500254117582233	0	0	0	-10.40158723145042	-2.613442481398647	9.104503654260675	35.72948514035026	1.741808192037561	4.799189040101823	18.19858850154052	97.30386631241083	0	0	25.81362167277653	-1.298454296849307	-9.310972530242436	4.849928887516691	95.69736545117438	0	0
0.16	-9.546735132282091	-5.994789955998876	26.10294350021045	0	0.9399999999999999	0	8.063949571176085	-3.502040203673681	-2.777061263775512	8.610914096357051	0.1502888025878228	0	0	0	8.063949571176085	-3.502040203673681	-2.777061263775512	8.610914096357051	0.1502888025878228	0	0	0	-10.40224712875945	-2.611894659266456	9.062063639140652	35.70918598124375	1.761771855855153	4.852212621351227	18.19887534043191	97.29435318020046	0	0	25.67575115254973	-1.258020861856728	-9.535307526672311	5.008224537099368	95.50172676775824	0	0
0.18	-9.544247022476904	-5.995478135763016	26.13961377387894	0	0.9399999999999999	0	8.077852127888374	-3.508704739402955	-2.781786520916095	8.628872742201953	0.1506022400870159	0	0	0	8.077852127888374	-3.508704739402955	-2.781786520916095	8.628872742201953	0.1506022400870159	0	0	0	-10.40334182309496	-2.606497793003088	9.030224162215333	35.70709286396277	1.745958396260785	4.859049140675419	18.18030887143656	97.28577880529247	0	0	25.57342456406172	-1.237718989829683	-9.830186534135121	5.134775493960082	95.40971050827845	0	0
0.2	-9.529235843815693	-5.994414088509587	26.17259772638737	0	0.9399999999999999	0	8.088268970949899	-3.513690372910823	-2.785325108115176	8.642327632992924	0.1508370722318146	0	0	0	8.088268970949899	-3.513690372910823	-2.785325108115176	8.642327632992924	0.1508370722318146	0	0	0	-10.39164372951484	-2.606670465195357	9.004454182599678	35.68960755199299	1.758036045215212	4.858633175153892	18.17278133768258	97.2887592566055	0	0	25.51722434038671	-1.19760476252518	-10.05557689848693	5.190030172150494	95.27625694679212	0	0
0.22	-9.528046298151366	-5.998516421917108	26.20700213860462	0	0.9399999999999999	0	8.101340952887186	-3.519944484280422	-2.789765468040672	8.65920323907384	0.1511316071211962	0	0	0	8.101340952887186	-3.519944484280422	-2.789765468040672	8.65920323907384	0.1511316071211962	0	0	0	-10.3953282646583	-2.603753908852447	8.972692255861647	35.68985298645973	1.759610431644548	4.845294215265758	18.14599315095874	97.32648700356991	0	0	25.47419074468387	-1.146528559203234	-10.25200539204693	5.232120686740819	94.97213553426479	0	0
0.24	-9.51703830037917	-5.996553088235374	26.25364156731732	0	0.9399999999999999	0	8.116536779064534	-3.527222927756922	-2.7949302818597	8.678799151047462	0.1514736203050669	0	0	0	8.116536779064534	-3.527222927756922	-2.7949302818597	8.678799151047462	0.1514736203050669	0	0	0	-10.38733721756393	-2.600304866808487	8.942441195532648	35.66478573493023	1.731821160291672	4.87883743830777	18.14332665448431	97.29097232858965	0	0	25.47281850684191	-1.149015656166924	-10.48544167362948	5.106375539260065	94.60807216115178	0	0
0.26	-9.510049099323457	-6.001713433862637	26.30481911582568	0	0.9399999999999999	0	8.135086016718828	-3.536108046118542	-2.801235894132685	8.702699335906901	0.1518907572226994	0	0	0	8.135086016718828	-3.536108046118542	-2.801235894132685	8.702699335906901	0.1518907572226994	0	0	0	-10.38772229545519	-2.597648070952924	8.89581137746725	35.67394458774222	1.751742387543527	4.902269726579346	18.10440922150447	97.28347053995594	0	0	25.62327342479919	-1.273033849645602	-10.80283928347677	4.795527233600428	94.25584958052092	0	0
0.28	-9.499730454837259	-5.992852495332354	26.41552443601385	0	0.9399999999999999	0	8.139723091013304	-3.53831067225473	-2.802807004224701	8.70868692573948	0.1519952603795368	0	0	0	8.139723091013304	-3.53831067225473	-2.802807004224701	8.70868692573948	0.1519952603795368	0	0	0	-10.37465356802569	-2.594290912105736	8.894923285263307	35.6428181365439	1.679444282927885	4.781313155674071	18.09641822762592	97.26658976065835	0	0	25.72712297192209	-1.439860418103073	-11.10978944832483	4.733030044946548	94.22585844331616	0	0
